<?xml version="1.0"?>
<svg xmlns="http://www.w3.org/2000/svg" height="512px" viewBox="-96 0 496 496" width="512px" class=""><g><path d="m96 168v48c0 4.425781 3.585938 8 8 8h48c4.414062 0 8-3.574219 8-8v-48c0-4.425781-3.585938-8-8-8h-48c-4.414062 0-8 3.574219-8 8zm16 8h32v32h-32zm0 0" data-original="#000000" class="active-path" data-old_color="#000000" fill="#007E97"/><path d="m272 168c0-4.425781-3.585938-8-8-8h-48c-4.414062 0-8 3.574219-8 8v48c0 4.425781 3.585938 8 8 8h48c4.414062 0 8-3.574219 8-8zm-16 40h-32v-32h32zm0 0" data-original="#000000" class="active-path" data-old_color="#000000" fill="#007E97"/><path d="m160 328v-48c0-4.425781-3.585938-8-8-8h-48c-4.414062 0-8 3.574219-8 8v48c0 4.425781 3.585938 8 8 8h48c4.414062 0 8-3.574219 8-8zm-16-8h-32v-32h32zm0 0" data-original="#000000" class="active-path" data-old_color="#000000" fill="#007E97"/><path d="m272 240h-80v-80h-16v80h-80v16h80v80h16v-80h80zm0 0" data-original="#000000" class="active-path" data-old_color="#000000" fill="#007E97"/><path d="m272 272h-56c-4.414062 0-8 3.574219-8 8v56h16v-48h48zm0 0" data-original="#000000" class="active-path" data-old_color="#000000" fill="#007E97"/><path d="m240 296h16v40h-16zm0 0" data-original="#000000" class="active-path" data-old_color="#000000" fill="#007E97"/><path d="m304 192v-56c0-4.425781-3.585938-8-8-8h-24v-88c0-22.054688-17.945312-40-40-40h-192c-22.054688 0-40 17.945312-40 40v416c0 22.054688 17.945312 40 40 40h192c22.054688 0 40-17.945312 40-40v-88h24c4.414062 0 8-3.574219 8-8v-56h-16v48h-48v16h16v88c0 13.230469-10.769531 24-24 24h-8v-8c0-13.230469-10.769531-24-24-24h-128c-13.230469 0-24 10.769531-24 24v8h-8c-13.230469 0-24-10.769531-24-24v-416c0-9.902344 6.03125-18.414062 14.609375-22.078125l43.734375 43.734375c1.496094 1.503906 3.535156 2.34375 5.65625 2.34375h112c2.121094 0 4.160156-.839844 5.65625-2.34375l43.734375-43.734375c8.578125 3.664063 14.609375 12.175781 14.609375 22.078125v88h-16v16h48v48zm-240 280c0-4.414062 3.59375-8 8-8h128c4.40625 0 8 3.585938 8 8v8h-144zm124.6875-424h-105.375l-32-32h169.375zm0 0" data-original="#000000" class="active-path" data-old_color="#000000" fill="#007E97"/><path d="m64 136v56h16v-48h48v-16h-56c-4.414062 0-8 3.574219-8 8zm0 0" data-original="#000000" class="active-path" data-old_color="#000000" fill="#007E97"/><path d="m64 360c0 4.425781 3.585938 8 8 8h56v-16h-48v-48h-16zm0 0" data-original="#000000" class="active-path" data-old_color="#000000" fill="#007E97"/></g> </svg>
